# Blender v2.83.9 OBJ File: 'PolyCoord2.blend'
# www.blender.org
o Behind_Cube1.006
v -0.514596 0.167330 0.689202
v -1.063820 0.540488 0.605441
v -1.063820 0.540488 0.365435
v -0.505774 0.162925 0.365435
v -0.036662 -0.157391 0.365435
v -0.036662 -0.157392 0.689201
v -0.036662 -0.157391 -0.697327
v -0.036662 -0.157391 -0.373560
v -0.505774 0.162925 -0.373560
v -0.514596 0.167330 -0.697326
v 0.745924 -0.153230 -0.697327
v 0.745924 0.156463 -0.697326
v -1.063820 0.540488 -0.373560
v -1.063820 0.540488 -0.613566
v 0.745924 0.544992 -0.655446
v -1.057686 1.301969 0.226850
v -1.057686 1.301969 -0.234975
v 0.682370 1.240215 0.646268
v 0.682370 0.608473 0.646268
v 0.682370 1.240216 -0.654393
v -0.454036 1.240216 -0.635559
v -0.517590 1.303778 -0.634506
v -0.517590 0.543376 0.626381
v -0.454036 0.607020 0.627435
v -0.454036 1.240215 0.627435
v -0.517590 1.303778 0.626382
v -0.454036 0.607020 -0.635559
v -0.453442 0.607020 -0.599724
v 0.682964 0.608473 -0.618558
v 0.682370 0.608473 -0.654393
v -0.453442 1.240215 0.591600
v 0.682964 1.240215 0.610433
v 0.682964 0.608473 0.610433
v -0.453442 0.607020 0.591600
v -2.872728 1.164492 -0.133205
v -2.872772 1.163068 -0.658082
v -2.875005 1.090659 -0.658082
v -2.874961 1.092082 -0.133327
v -2.506109 1.092072 0.168551
v -2.506153 1.090649 0.649957
v -2.875005 1.090659 0.649957
v -2.874961 1.092082 0.125202
v -2.506109 1.092072 -0.176675
v -2.506153 1.090649 -0.658082
v -2.503920 1.163077 -0.658082
v -2.503876 1.164501 -0.176669
v -2.872728 1.164492 0.125080
v -2.872772 1.163068 0.649957
v -2.503920 1.163077 0.649957
v -2.503876 1.164501 0.168544
v -2.503926 1.383502 -0.658082
v -2.872778 1.383493 -0.658082
v -2.503920 1.163077 0.696923
v -2.506153 1.090649 0.696923
v -2.503926 1.383502 0.649957
v -2.503926 1.383502 0.680311
v -2.875005 1.090659 0.696923
v -2.872772 1.163068 0.696923
v -2.875011 0.870234 0.649957
v -2.875011 0.870234 0.677558
v -2.506159 0.870224 0.677558
v -2.506159 0.870224 0.649957
v -2.872778 1.383493 0.680311
v -2.872778 1.383493 0.649957
v -2.506159 0.870224 -0.685683
v -2.506159 0.870224 -0.658082
v -2.875011 0.870234 -0.658082
v -2.875011 0.870234 -0.685683
v -3.765404 1.177399 0.012388
v -3.765404 1.177399 0.050942
v -3.761010 1.319897 0.050942
v -3.761010 1.319897 0.012388
v -3.761010 1.319897 -0.020512
v -3.765404 1.177399 -0.020512
v -3.761010 1.319897 -0.059067
v -3.765404 1.177399 -0.059067
v -3.652570 1.278519 0.070810
v -3.639822 1.244844 0.070810
v -3.719072 1.280570 0.070810
v -3.685396 1.293318 0.070810
v -3.721123 1.214068 0.070810
v -3.733871 1.247743 0.070810
v -3.654621 1.212017 0.070810
v -3.688296 1.199269 0.070810
v 0.288879 -0.155069 -0.697327
v 0.168568 -0.155783 -0.697327
v 0.168568 -0.155783 0.689201
v 0.288879 -0.155069 0.689201
v -2.503442 0.897562 0.168566
v -2.503521 0.897581 0.144003
v -2.503521 0.897582 -0.152128
v -2.503442 0.897562 -0.176691
v -3.612682 1.172690 -0.078935
v -2.870085 0.988501 -0.133523
v -2.867852 0.987948 -0.113187
v -3.612682 1.172690 -0.042462
v -3.612682 1.172690 0.070810
v -3.612682 1.172690 0.034338
v -2.867852 0.987948 0.105062
v -2.870085 0.988501 0.125398
v 0.745924 -0.153230 -0.373560
v -0.517590 0.543376 -0.634506
v 0.682964 1.240216 -0.618558
v -0.453442 1.240216 -0.599724
v -2.506153 1.090649 -0.705047
v -2.875005 1.090659 -0.705047
v -2.872772 1.163068 -0.705047
v -2.503920 1.163077 -0.705047
v -2.872778 1.383493 -0.688435
v -2.503926 1.383502 -0.688435
v 0.745924 0.156462 0.689202
v -1.058561 1.303778 0.605442
v -2.498982 1.310224 0.168529
v -3.608289 1.315188 0.070810
v -2.869950 1.311884 0.124867
v -1.058561 1.303778 -0.613566
v -2.498982 1.310224 -0.176654
v -3.608289 1.315188 -0.078935
v -2.869950 1.311884 -0.132992
v -2.872689 1.311375 0.089859
v -3.608289 1.315188 0.034338
v -3.608289 1.315188 -0.042462
v -2.872689 1.311375 -0.097983
v -2.498808 1.309438 0.118078
v -2.498808 1.309438 -0.126203
v 0.745924 1.303778 0.647322
v 0.745924 0.544991 0.647322
v 0.745924 -0.153231 0.365435
v 0.745924 -0.153231 0.689201
v 0.745924 1.303778 -0.655446
v 0.745101 1.305480 -0.328475
v 0.745101 1.305480 0.320350
v 0.168568 -0.155783 0.365435
v 0.168568 -0.155783 -0.373560
v 0.288879 -0.155069 0.365435
v 0.288879 -0.155069 -0.373560
v -3.719070 1.280570 0.070811
v -3.721121 1.214067 0.070811
v -3.733869 1.247743 0.070811
v -3.652568 1.278519 0.070811
v -3.639821 1.244843 0.070811
v -3.685395 1.293317 0.070811
v -3.654619 1.212017 0.070811
v -3.688294 1.199269 0.070811
v -3.721123 1.214068 0.070810
v -3.719072 1.280570 0.070810
v -2.503920 1.163077 -0.658082
v -2.503926 1.383502 -0.658082
v -3.652568 1.278519 0.132930
v -3.639821 1.244843 0.132930
v -3.719070 1.280570 0.132930
v -3.685395 1.293317 0.132930
v -3.721121 1.214067 0.132930
v -3.733869 1.247743 0.132930
v -3.654619 1.212017 0.132930
v -3.688294 1.199269 0.132930
v -3.719070 1.280570 0.070811
v -3.719070 1.280570 0.132930
v -3.733869 1.247743 0.132930
v -3.733869 1.247743 0.070811
v -3.721121 1.214067 0.070811
v -3.721121 1.214067 0.132930
vt 1.000000 0.000000
vt 0.000000 1.000000
vt 0.000000 0.000000
vt 1.000000 0.000000
vt 0.000000 1.000000
vt 0.000000 0.000000
vt 1.000000 1.000000
vt 0.000000 1.000000
vt 1.000000 0.000000
vt 0.000000 1.000000
vt 0.000000 0.000000
vt 0.000000 1.000000
vt 0.000000 0.000000
vt 1.000000 0.000000
vt 0.000000 0.000000
vt 1.000000 0.000000
vt 0.000000 1.000000
vt 0.000000 0.000000
vt 1.000000 0.000000
vt 0.000000 1.000000
vt 0.000000 0.000000
vt 1.000000 0.000000
vt 0.000000 1.000000
vt 0.000000 0.000000
vt 1.000000 0.000000
vt 0.000000 1.000000
vt 0.000000 0.000000
vt 0.000000 0.000000
vt 1.000000 1.000000
vt 0.000000 1.000000
vt 1.000000 0.000000
vt 0.000000 1.000000
vt 0.000000 0.000000
vt 1.000000 0.000000
vt 0.000000 1.000000
vt 0.000000 0.000000
vt 0.000000 0.000000
vt 1.000000 1.000000
vt 0.000000 1.000000
vt 0.000000 0.000000
vt 1.000000 1.000000
vt 0.000000 1.000000
vt 1.000000 0.000000
vt 0.000000 1.000000
vt 0.000000 0.000000
vt 1.000000 0.000000
vt 0.000000 1.000000
vt 0.000000 0.000000
vt 1.000000 0.000000
vt 0.000000 1.000000
vt 0.000000 0.000000
vt 1.000000 1.000000
vt 0.000000 1.000000
vt 1.000000 0.000000
vt 0.000000 1.000000
vt 0.000000 0.000000
vt 1.000000 1.000000
vt 0.000000 1.000000
vt 1.000000 0.000000
vt 0.000000 0.000000
vt 1.000000 0.000000
vt 0.000000 0.000000
vt 1.000000 0.000000
vt 0.000000 1.000000
vt 0.000000 0.000000
vt 1.000000 0.000000
vt 0.000000 1.000000
vt 0.000000 0.000000
vt 1.000000 0.000000
vt 0.000000 1.000000
vt 0.000000 0.000000
vt 1.000000 0.000000
vt 0.000000 1.000000
vt 0.000000 0.000000
vt 1.000000 0.000000
vt 0.000000 1.000000
vt 0.000000 0.000000
vt 1.000000 0.000000
vt 0.000000 1.000000
vt 0.000000 0.000000
vt 1.000000 0.000000
vt 0.000000 1.000000
vt 0.000000 0.000000
vt 1.000000 0.000000
vt 0.000000 1.000000
vt 0.000000 0.000000
vt 1.000000 0.000000
vt 0.000000 1.000000
vt 0.000000 0.000000
vt 1.000000 0.000000
vt 0.000000 1.000000
vt 0.000000 0.000000
vt 1.000000 0.000000
vt 0.000000 1.000000
vt 0.000000 0.000000
vt 1.000000 0.000000
vt 0.000000 1.000000
vt 0.000000 0.000000
vt 1.000000 0.000000
vt 0.000000 1.000000
vt 0.000000 0.000000
vt 1.000000 0.000000
vt 0.000000 0.000000
vt 1.000000 0.000000
vt 0.000000 1.000000
vt 0.000000 0.000000
vt 0.000000 0.000000
vt 1.000000 1.000000
vt 0.000000 1.000000
vt 0.000000 1.000000
vt 0.000000 0.000000
vt 1.000000 0.000000
vt 0.000000 0.000000
vt 1.000000 1.000000
vt 0.000000 1.000000
vt 1.000000 0.000000
vt 0.000000 1.000000
vt 0.000000 0.000000
vt 1.000000 0.000000
vt 1.000000 0.000000
vt 0.000000 1.000000
vt 0.000000 0.000000
vt 1.000000 0.000000
vt 0.000000 1.000000
vt 0.000000 0.000000
vt 1.000000 0.000000
vt 0.000000 1.000000
vt 0.000000 0.000000
vt 1.000000 0.000000
vt 0.000000 1.000000
vt 0.000000 0.000000
vt 1.000000 0.000000
vt 0.000000 1.000000
vt 0.000000 0.000000
vt 0.000000 0.000000
vt 1.000000 1.000000
vt 0.000000 1.000000
vt 1.000000 0.000000
vt 0.000000 1.000000
vt 0.000000 0.000000
vt 0.000000 1.000000
vt 0.000000 0.000000
vt 1.000000 0.000000
vt 0.000000 1.000000
vt 0.000000 0.000000
vt 0.000000 1.000000
vt 0.000000 0.000000
vt 0.000000 0.000000
vt 1.000000 1.000000
vt 0.000000 1.000000
vt 1.000000 0.000000
vt 0.000000 1.000000
vt 0.000000 0.000000
vt 1.000000 0.000000
vt 0.000000 1.000000
vt 0.000000 0.000000
vt 0.000000 0.000000
vt 1.000000 1.000000
vt 0.000000 1.000000
vt 0.000000 0.000000
vt 1.000000 1.000000
vt 0.000000 1.000000
vt 0.000000 0.000000
vt 1.000000 1.000000
vt 0.000000 1.000000
vt 0.000000 0.000000
vt 1.000000 1.000000
vt 0.000000 1.000000
vt 1.000000 1.000000
vt 0.000000 1.000000
vt 0.000000 0.000000
vt 1.000000 1.000000
vt 1.000000 0.000000
vt 0.000000 1.000000
vt 0.000000 0.000000
vt 0.000000 1.000000
vt 0.000000 0.000000
vt 0.000000 1.000000
vt 0.000000 0.000000
vt 1.000000 0.000000
vt 1.000000 1.000000
vt 0.066987 0.250000
vt 0.066987 0.750000
vt 0.933013 0.250000
vt 1.000000 1.000000
vt 0.000000 1.000000
vt 0.000000 1.000000
vt 0.500000 0.000000
vt 0.066987 0.250000
vt 0.500000 1.000000
vt 0.500000 1.000000
vt 0.793893 0.095491
vt 0.024472 0.654509
vt 0.500000 0.000000
vt 0.066987 0.250000
vt 0.066987 0.750000
vt 0.500000 1.000000
vt 0.793893 0.095491
vt 0.024472 0.654509
vt 1.000000 0.000000
vt 0.000000 1.000000
vt 0.000000 0.000000
vt 1.000000 0.000000
vt 0.000000 1.000000
vt 0.000000 0.000000
vt 1.000000 0.000000
vt 0.000000 1.000000
vt 0.000000 0.000000
vt 0.000000 0.000000
vt 1.000000 1.000000
vt 0.000000 1.000000
vt 1.000000 0.000000
vt 0.000000 1.000000
vt 0.000000 0.000000
vt 0.000000 0.000000
vt 1.000000 1.000000
vt 0.000000 1.000000
vt 1.000000 0.000000
vt 0.000000 1.000000
vt 0.000000 0.000000
vt 0.000000 0.000000
vt 1.000000 1.000000
vt 0.000000 1.000000
vt 1.000000 0.000000
vt 0.000000 1.000000
vt 0.000000 0.000000
vt 1.000000 0.000000
vt 0.000000 1.000000
vt 0.000000 0.000000
vt 0.793893 0.095491
vt 0.206107 0.095492
vt 0.024472 0.654509
vt 0.500000 1.000000
vt 0.793893 0.095491
vt 0.024472 0.654509
vt 1.000000 0.000000
vt 0.500000 0.000000
vt 0.066987 0.250000
vt 0.066987 0.750000
vt 0.500000 0.000000
vt 0.066987 0.250000
vt 0.066987 0.750000
vt 1.000000 0.000000
vt 0.000000 1.000000
vt 0.000000 0.000000
vt 1.000000 1.000000
vt 0.000000 1.000000
vt 1.000000 0.000000
vt 0.000000 1.000000
vt 0.000000 0.000000
vt 1.000000 0.000000
vt 1.000000 1.000000
vt 1.000000 0.000000
vt 0.000000 1.000000
vt 0.000000 0.000000
vt 1.000000 0.000000
vt 0.000000 1.000000
vt 0.000000 0.000000
vt 0.000000 0.000000
vt 1.000000 1.000000
vt 1.000000 0.000000
vt 0.000000 1.000000
vt 0.000000 0.000000
vt 1.000000 0.000000
vt 0.000000 1.000000
vt 0.000000 0.000000
vt 1.000000 1.000000
vt 0.000000 1.000000
vt 1.000000 0.000000
vt 0.000000 1.000000
vt 0.000000 0.000000
vt 1.000000 1.000000
vt 0.000000 1.000000
vt 1.000000 0.000000
vt 0.000000 0.000000
vt 1.000000 0.000000
vt 0.000000 0.000000
vt 1.000000 0.000000
vt 0.000000 1.000000
vt 0.000000 0.000000
vt 1.000000 0.000000
vt 0.000000 1.000000
vt 1.000000 0.000000
vt 0.000000 0.000000
vt 0.500000 1.000000
vt 0.933013 0.750000
vt 0.500000 0.000000
vt 0.793893 0.095491
vt 0.206107 0.095492
vt 0.024472 0.654509
vt 0.975528 0.654508
vt 0.206107 0.095492
vt 0.024472 0.654509
vt 0.000000 0.000000
vt 1.000000 1.000000
vt 0.000000 1.000000
vt 0.000000 1.000000
vt 0.000000 0.000000
vt 1.000000 0.000000
vt 0.000000 0.000000
vt 1.000000 1.000000
vt 0.000000 1.000000
vt 1.000000 0.000000
vt 0.000000 0.000000
vt 0.000000 0.000000
vt 1.000000 1.000000
vt 1.000000 0.000000
vt 0.000000 1.000000
vt 0.000000 0.000000
vt 0.000000 0.000000
vt 1.000000 1.000000
vt 0.000000 1.000000
vt 1.000000 0.000000
vt 0.000000 1.000000
vt 0.000000 0.000000
vt 0.000000 1.000000
vt 0.000000 0.000000
vt 0.000000 0.000000
vt 1.000000 1.000000
vt 0.000000 1.000000
vt 1.000000 1.000000
vt 0.000000 1.000000
vt 1.000000 1.000000
vt 1.000000 1.000000
vt 1.000000 1.000000
vt 1.000000 1.000000
vt 1.000000 1.000000
vt 1.000000 1.000000
vt 1.000000 1.000000
vt 1.000000 0.000000
vt 1.000000 1.000000
vt 1.000000 1.000000
vt 1.000000 0.000000
vt 1.000000 0.000000
vt 1.000000 1.000000
vt 1.000000 1.000000
vt 1.000000 1.000000
vt 1.000000 1.000000
vt 1.000000 1.000000
vt 1.000000 1.000000
vt 1.000000 1.000000
vt 1.000000 1.000000
vt 1.000000 1.000000
vt 1.000000 1.000000
vt 1.000000 1.000000
vt 1.000000 1.000000
vt 1.000000 1.000000
vt 1.000000 1.000000
vt 1.000000 1.000000
vt 1.000000 1.000000
vt 1.000000 1.000000
vt 1.000000 1.000000
vt 1.000000 1.000000
vt 1.000000 1.000000
vt 1.000000 1.000000
vt 1.000000 0.000000
vt 1.000000 1.000000
vt 1.000000 1.000000
vt 1.000000 1.000000
vt 1.000000 0.000000
vt 1.000000 1.000000
vt 1.000000 1.000000
vt 1.000000 1.000000
vt 1.000000 1.000000
vt 1.000000 0.000000
vt 1.000000 0.000000
vt 1.000000 0.000000
vt 1.000000 0.000000
vt 1.000000 0.000000
vt 1.000000 0.000000
vt 1.000000 1.000000
vt 1.000000 1.000000
vt 0.500000 1.000000
vt 0.933013 0.750000
vt 0.500000 0.000000
vt 1.000000 0.000000
vt 1.000000 1.000000
vt 0.066987 0.750000
vt 0.933013 0.750000
vt 0.933013 0.250000
vt 0.975528 0.654508
vt 0.206107 0.095492
vt 0.933013 0.750000
vt 0.933013 0.250000
vt 0.975528 0.654508
vt 0.206107 0.095492
vt 1.000000 1.000000
vt 1.000000 1.000000
vt 1.000000 1.000000
vt 1.000000 1.000000
vt 1.000000 0.000000
vt 1.000000 1.000000
vt 1.000000 0.000000
vt 1.000000 1.000000
vt 0.500000 1.000000
vt 0.975528 0.654508
vt 0.975528 0.654508
vt 0.206107 0.095492
vt 1.000000 1.000000
vt 0.500000 1.000000
vt 0.933013 0.750000
vt 0.933013 0.250000
vt 0.500000 1.000000
vt 0.933013 0.250000
vt 0.933013 0.750000
vt 1.000000 1.000000
vt 1.000000 0.000000
vt 1.000000 1.000000
vt 1.000000 1.000000
vt 1.000000 1.000000
vt 1.000000 0.000000
vt 1.000000 1.000000
vt 1.000000 1.000000
vt 1.000000 1.000000
vt 1.000000 1.000000
vt 1.000000 1.000000
vt 1.000000 1.000000
vt 0.933013 0.250000
vt 0.066987 0.250000
vt 0.066987 0.750000
vt 0.500000 1.000000
vt 0.975528 0.654508
vt 0.793893 0.095491
vt 1.000000 1.000000
vt 1.000000 1.000000
vt 1.000000 0.000000
vt 1.000000 1.000000
vt 1.000000 0.000000
vt 1.000000 1.000000
vt 1.000000 0.000000
vt 1.000000 0.000000
vn -0.5616 -0.8274 -0.0040
vn -0.5620 -0.8271 -0.0041
vn -0.5620 -0.8271 0.0041
vn -0.5616 -0.8274 0.0040
vn -0.5604 -0.8282 -0.0000
vn -0.5639 -0.8258 -0.0000
vn -0.0166 -0.0000 0.9999
vn -0.0166 0.0000 -0.9999
vn -0.0013 1.0000 0.0000
vn 0.0000 -1.0000 -0.0000
vn -0.9995 0.0308 -0.0000
vn 0.0003 -1.0000 -0.0027
vn 0.9995 -0.0308 0.0000
vn -0.0003 1.0000 0.0027
vn -0.0000 0.0000 1.0000
vn 1.0000 0.0000 0.0000
vn -1.0000 0.0000 0.0000
vn 0.9352 0.3540 0.0000
vn -0.3540 0.9352 0.0000
vn -0.9352 -0.3540 0.0000
vn 0.3540 -0.9352 0.0000
vn 0.4110 0.9116 0.0000
vn 0.9116 -0.4110 0.0000
vn -0.4110 -0.9116 0.0000
vn 0.0078 -1.0000 -0.0000
vn -0.2407 -0.9706 -0.0000
vn -0.0308 -0.9995 0.0000
vn 0.0040 -1.0000 -0.0000
vn 0.0003 -1.0000 0.0027
vn -0.0003 1.0000 -0.0027
vn 0.0000 0.0000 -1.0000
vn -0.0000 -0.0875 -0.9962
vn -0.0000 0.0752 -0.9972
vn -0.0387 0.1643 0.9856
vn 0.0009 0.1072 -0.9942
vn -0.0383 0.0003 0.9993
vn -0.2884 -0.0039 0.9575
vn -0.0730 0.0028 0.9973
vn -0.1310 -0.3727 0.9187
vn 0.9999 -0.0000 0.0166
vn -0.9999 -0.0000 -0.0166
vn -0.1173 -0.0015 0.9931
vn -0.1169 0.0040 0.9931
vn -0.0000 1.0000 0.0000
vn -0.3128 0.1410 0.9393
vn -0.1078 0.3800 0.9187
vn -0.0383 0.0003 -0.9993
vn -0.2902 0.0098 -0.9569
vn -0.0737 -0.0016 -0.9973
vn -0.1289 0.0040 -0.9917
vn 0.0009 0.1072 0.9942
vn -0.0387 0.1643 -0.9856
vn 0.9999 0.0000 -0.0166
vn -0.9999 0.0000 0.0166
vn -0.1173 -0.0015 -0.9931
vn -0.1169 0.0040 -0.9931
vn -0.0000 0.0752 0.9972
vn -0.0000 -0.0875 0.9962
vn -0.0001 1.0000 -0.0052
vn -0.0018 1.0000 -0.0020
vn 0.0052 1.0000 0.0000
vn 0.0308 0.9995 0.0000
vn 0.0059 1.0000 -0.0048
vn 0.0063 0.9999 -0.0150
vn 0.0063 0.9999 0.0150
vn 0.0059 1.0000 0.0048
vn -0.0000 -1.0000 -0.0030
vn -0.0000 1.0000 0.0030
vn -0.0000 -1.0000 0.0030
vn -0.0000 1.0000 -0.0030
vn -0.0166 0.1646 -0.9862
vn -0.0387 -0.0000 0.9993
vn -0.2899 0.0020 0.9570
vn -0.2902 0.0098 0.9569
vn -0.2901 0.0090 0.9569
vn -0.0731 0.0023 0.9973
vn -0.0737 -0.0016 0.9973
vn -0.0731 0.0039 0.9973
vn -0.1476 -0.3274 0.9333
vn -0.1167 -0.0036 0.9932
vn -0.1170 0.0036 0.9931
vn -0.5603 0.0173 0.8281
vn -0.3209 -0.1215 0.9393
vn -0.1272 0.3359 0.9333
vn -0.0387 0.0000 -0.9993
vn -0.2899 0.0020 -0.9570
vn -0.2884 -0.0039 -0.9575
vn -0.2901 0.0090 -0.9569
vn -0.0731 0.0023 -0.9973
vn -0.0730 0.0028 -0.9973
vn -0.0731 0.0039 -0.9973
vn -0.0166 0.1646 0.9862
vn -0.1167 -0.0036 -0.9932
vn -0.1170 0.0036 -0.9931
vn 0.0002 1.0000 0.0048
vn -0.0018 1.0000 0.0020
vn 0.0002 1.0000 -0.0048
vn -0.0001 1.0000 0.0052
vn 0.0056 0.9999 -0.0150
vn 0.0056 0.9999 0.0150
vn 0.0064 0.9999 -0.0156
vn 0.0063 0.9999 -0.0156
vn 0.0063 0.9999 0.0156
vn 0.0064 0.9999 0.0156
s off
f 2/1/1 4/2/1 1/3/1
f 4/4/2 6/5/2 1/3/2
f 7/6/3 9/7/3 10/8/3
f 9/9/4 14/10/4 10/11/4
f 9/9/5 3/12/5 13/13/5
f 8/14/6 4/2/6 9/15/6
f 18/16/7 127/17/7 126/18/7
f 20/19/8 22/20/8 130/21/8
f 24/22/7 26/23/7 23/24/7
f 28/25/9 30/26/9 27/27/9
f 25/28/10 32/29/10 18/30/10
f 33/31/9 24/32/9 19/33/9
f 36/34/11 38/35/11 35/36/11
f 39/37/12 41/38/12 42/39/12
f 43/40/13 147/41/13 46/42/13
f 48/43/14 50/44/14 47/45/14
f 148/46/15 36/47/15 147/48/15
f 53/49/13 40/50/13 49/51/13
f 49/51/16 56/52/16 53/53/16
f 57/54/11 48/55/11 41/56/11
f 41/56/17 60/57/17 57/58/17
f 61/59/16 40/50/16 54/60/16
f 63/61/17 48/55/17 58/62/17
f 66/63/10 68/64/10 65/65/10
f 70/66/11 72/67/11 69/68/11
f 73/69/11 69/70/11 72/71/11
f 75/72/11 74/73/11 73/74/11
f 149/75/18 141/76/18 140/77/18
f 151/78/19 142/79/19 157/80/19
f 153/81/20 160/82/20 161/83/20
f 155/84/21 144/85/21 143/86/21
f 152/87/22 140/88/22 142/89/22
f 137/90/23 159/91/23 139/92/23
f 156/93/24 138/94/24 144/95/24
f 150/96/23 143/97/23 141/98/23
f 5/99/25 87/100/25 6/101/25
f 89/102/26 3/12/26 2/103/26
f 13/104/26 92/105/26 14/106/26
f 93/107/26 95/108/26 96/109/26
f 70/66/27 98/110/27 97/111/27
f 95/112/26 98/110/26 96/113/26
f 96/113/27 76/114/27 93/115/27
f 99/116/26 97/117/26 98/118/26
f 69/119/27 96/109/27 98/118/27
f 90/120/26 13/121/26 3/122/26
f 134/123/25 5/124/25 8/125/25
f 129/126/28 135/127/28 128/128/28
f 136/129/28 11/130/28 101/131/28
f 25/132/7 126/133/7 26/134/7
f 22/135/8 27/136/8 102/137/8
f 103/138/10 21/139/10 20/140/10
f 33/31/7 31/141/7 34/142/7
f 94/143/26 91/144/26 95/145/26
f 90/120/26 95/146/26 91/147/26
f 90/148/26 100/149/26 99/150/26
f 37/151/29 43/152/29 38/153/29
f 49/154/13 39/155/13 50/156/13
f 46/157/30 36/158/30 35/159/30
f 42/160/11 48/161/11 47/162/11
f 48/163/31 55/164/31 49/165/31
f 105/166/31 107/167/31 108/168/31
f 105/166/32 68/169/32 106/170/32
f 107/171/33 110/172/33 108/168/33
f 59/173/10 61/174/10 60/175/10
f 136/129/28 128/176/28 135/177/28
f 134/123/25 7/178/25 86/179/25
f 1/3/34 23/180/34 2/181/34
f 85/182/31 86/183/31 12/184/31
f 10/11/35 15/185/35 12/186/35
f 23/180/36 112/187/36 2/103/36
f 39/188/37 89/189/37 112/190/37
f 114/191/15 78/192/15 97/193/15
f 47/194/38 115/195/38 114/196/38
f 97/197/39 84/198/39 70/199/39
f 27/200/8 15/201/8 102/202/8
f 34/203/40 25/204/40 24/205/40
f 32/206/41 19/207/41 18/208/41
f 104/209/8 29/210/8 28/211/8
f 39/212/42 100/213/42 89/214/42
f 115/215/43 50/216/43 113/217/43
f 67/218/15 44/219/15 37/220/15
f 40/221/31 59/222/31 41/223/31
f 55/224/44 63/225/44 56/226/44
f 52/227/44 110/228/44 109/229/44
f 82/230/45 146/231/45 71/232/45
f 71/233/46 80/234/46 114/235/46
f 116/236/47 102/137/47 14/106/47
f 46/237/48 117/238/48 116/239/48
f 38/240/49 94/241/49 93/242/49
f 76/243/50 118/244/50 93/107/50
f 127/245/7 24/246/7 23/247/7
f 127/248/51 1/249/51 111/250/51
f 102/202/52 10/251/52 14/252/52
f 104/253/53 27/254/53 21/255/53
f 29/256/54 20/257/54 30/258/54
f 94/259/55 43/260/55 92/105/55
f 46/261/56 119/262/56 117/263/56
f 105/264/13 45/265/13 44/266/13
f 44/266/16 65/267/16 105/268/16
f 107/269/11 37/270/11 36/271/11
f 36/271/17 109/272/17 107/273/17
f 110/274/16 45/265/16 108/275/16
f 68/276/17 37/270/17 106/277/17
f 58/278/15 54/279/15 53/280/15
f 56/281/57 58/282/57 53/280/57
f 60/283/58 54/279/58 57/284/58
f 87/285/15 88/286/15 111/287/15
f 131/288/59 130/289/59 22/290/59
f 26/291/60 132/292/60 16/293/60
f 114/294/61 120/295/61 121/296/61
f 75/72/62 122/297/62 118/298/62
f 120/299/61 122/297/61 121/300/61
f 121/300/62 71/301/62 114/302/62
f 123/303/61 118/244/61 122/304/61
f 73/69/62 121/296/62 122/304/62
f 16/305/63 113/306/63 112/187/63
f 125/307/61 16/308/61 17/309/61
f 15/310/8 20/311/8 130/312/8
f 115/313/64 124/314/64 120/315/64
f 125/307/61 120/316/61 124/317/61
f 125/318/65 119/319/65 123/320/65
f 117/263/66 17/321/66 116/322/66
f 2/1/5 3/323/5 4/2/5
f 4/4/6 5/324/6 6/5/6
f 7/6/6 8/14/6 9/7/6
f 9/9/5 13/325/5 14/10/5
f 9/9/5 4/326/5 3/12/5
f 8/14/6 5/324/6 4/2/6
f 18/16/7 19/327/7 127/17/7
f 20/19/8 21/328/8 22/20/8
f 24/22/7 25/329/7 26/23/7
f 28/25/9 29/210/9 30/26/9
f 25/28/10 31/330/10 32/29/10
f 33/31/9 34/331/9 24/32/9
f 36/34/11 37/332/11 38/35/11
f 39/37/67 40/333/67 41/38/67
f 43/40/13 44/334/13 147/41/13
f 48/43/68 49/335/68 50/44/68
f 148/46/15 52/336/15 36/47/15
f 53/49/13 54/337/13 40/50/13
f 49/51/16 55/224/16 56/52/16
f 57/54/11 58/338/11 48/55/11
f 41/56/17 59/173/17 60/57/17
f 61/59/16 62/339/16 40/50/16
f 63/61/17 64/340/17 48/55/17
f 66/63/10 67/341/10 68/64/10
f 70/66/11 71/301/11 72/67/11
f 73/69/11 74/342/11 69/70/11
f 75/72/11 76/114/11 74/73/11
f 149/75/18 150/343/18 141/76/18
f 151/78/19 152/344/19 142/79/19
f 153/81/20 154/345/20 160/82/20
f 155/84/21 156/346/21 144/85/21
f 152/87/22 149/347/22 140/88/22
f 137/90/23 158/348/23 159/91/23
f 156/93/24 162/349/24 138/94/24
f 150/96/23 155/350/23 143/97/23
f 5/99/25 133/351/25 87/100/25
f 89/102/26 90/352/26 3/12/26
f 13/104/26 91/353/26 92/105/26
f 93/107/26 94/143/26 95/108/26
f 70/66/27 69/354/27 98/110/27
f 95/112/26 99/355/26 98/110/26
f 96/113/27 74/356/27 76/114/27
f 99/116/26 100/149/26 97/117/26
f 69/119/27 74/342/27 96/109/27
f 90/120/26 91/353/26 13/121/26
f 134/123/25 133/351/25 5/124/25
f 129/126/28 88/357/28 135/127/28
f 136/129/28 85/358/28 11/130/28
f 25/132/7 18/359/7 126/133/7
f 22/135/8 21/360/8 27/136/8
f 103/138/10 104/361/10 21/139/10
f 33/31/7 32/29/7 31/141/7
f 94/143/26 92/362/26 91/144/26
f 90/120/26 99/355/26 95/146/26
f 90/148/26 89/102/26 100/149/26
f 37/151/69 44/363/69 43/152/69
f 49/154/13 40/364/13 39/155/13
f 46/157/70 147/365/70 36/158/70
f 42/160/11 41/366/11 48/161/11
f 48/163/31 64/367/31 55/164/31
f 105/166/31 106/368/31 107/167/31
f 105/166/32 65/369/32 68/169/32
f 107/171/33 109/370/33 110/172/33
f 59/173/10 62/339/10 61/174/10
f 136/129/28 101/371/28 128/176/28
f 134/123/25 8/372/25 7/178/25
f 86/183/31 7/373/31 10/374/31
f 10/374/31 12/184/31 86/183/31
f 12/184/31 11/375/31 85/182/31
f 10/11/71 102/376/71 15/185/71
f 23/180/72 26/377/72 112/187/72
f 2/378/73 112/190/73 89/189/73
f 112/190/74 113/379/74 50/380/74
f 39/188/75 112/190/75 50/380/75
f 114/191/15 77/381/15 78/192/15
f 78/192/15 83/382/15 97/193/15
f 114/196/76 97/197/76 47/194/76
f 97/197/77 100/383/77 42/384/77
f 42/384/78 47/194/78 97/197/78
f 97/197/15 83/385/15 84/198/15
f 84/198/79 145/386/79 70/199/79
f 27/200/8 30/387/8 15/201/8
f 34/203/40 31/388/40 25/204/40
f 32/206/41 33/389/41 19/207/41
f 104/209/8 103/138/8 29/210/8
f 39/212/80 42/390/80 100/213/80
f 115/215/81 47/391/81 50/216/81
f 67/218/15 66/392/15 44/219/15
f 40/221/31 62/393/31 59/222/31
f 55/224/44 64/340/44 63/225/44
f 52/227/44 51/394/44 110/228/44
f 71/232/82 70/395/82 82/230/82
f 70/395/83 81/396/83 82/230/83
f 71/233/84 79/397/84 80/234/84
f 80/234/15 77/398/15 114/235/15
f 116/236/85 22/399/85 102/137/85
f 116/239/86 14/400/86 92/401/86
f 92/401/87 43/402/87 116/239/87
f 43/402/88 46/237/88 116/239/88
f 93/242/89 118/403/89 35/404/89
f 118/403/90 119/405/90 35/404/90
f 35/404/91 38/240/91 93/242/91
f 76/243/50 75/406/50 118/244/50
f 127/245/7 19/407/7 24/246/7
f 127/248/92 23/408/92 1/249/92
f 104/253/53 28/409/53 27/254/53
f 29/256/54 103/410/54 20/257/54
f 94/259/93 38/411/93 43/260/93
f 46/261/94 35/412/94 119/262/94
f 105/264/13 108/413/13 45/265/13
f 44/266/16 66/63/16 65/267/16
f 107/269/11 106/414/11 37/270/11
f 36/271/17 52/227/17 109/272/17
f 110/274/16 51/394/16 45/265/16
f 68/276/17 67/341/17 37/270/17
f 58/278/15 57/415/15 54/279/15
f 56/281/57 63/416/57 58/282/57
f 60/283/58 61/417/58 54/279/58
f 88/286/15 129/418/15 111/287/15
f 111/287/15 1/419/15 87/285/15
f 1/419/15 6/420/15 87/285/15
f 22/290/95 116/421/95 17/422/95
f 17/422/96 131/288/96 22/290/96
f 16/293/97 112/190/97 26/291/97
f 26/291/98 126/423/98 132/292/98
f 114/294/99 115/313/99 120/295/99
f 75/72/62 73/424/62 122/297/62
f 120/299/61 123/425/61 122/297/61
f 121/300/62 72/426/62 71/301/62
f 123/303/100 119/319/100 118/244/100
f 73/69/62 72/427/62 121/296/62
f 16/305/101 124/428/101 113/306/101
f 125/307/61 124/429/61 16/308/61
f 15/310/8 30/430/8 20/311/8
f 115/313/102 113/306/102 124/314/102
f 125/307/61 123/425/61 120/316/61
f 125/318/103 117/431/103 119/319/103
f 117/263/104 125/307/104 17/321/104
