# Blender v2.83.9 OBJ File: 'PolyCoord2.blend'
# www.blender.org
o Blade_Cube1.009
v 0.763226 2.077573 -0.045568
v 0.779711 2.078400 -0.005720
v 0.723429 2.075575 -0.062073
v 0.683631 2.073578 -0.045568
v 0.667146 2.072751 -0.005720
v 0.683631 2.073578 0.034128
v 0.723429 2.075575 0.050633
v 0.763226 2.077573 0.034128
v 0.721457 2.143159 -0.062073
v 0.681660 2.141162 -0.045568
v 0.665175 2.140334 -0.005720
v 0.681660 2.141162 0.034128
v 0.721457 2.143159 0.050633
v 0.761255 2.145157 0.034128
v 0.777740 2.145984 -0.005720
v 0.761255 2.145157 -0.045568
v 0.830856 2.080968 -0.113282
v 0.723429 2.075575 -0.157836
v 0.721457 2.114848 -0.157836
v 0.828885 2.120240 -0.113282
v 2.814082 2.161486 -1.053048
v 2.918260 2.230797 -0.730768
v 0.875354 2.083201 -0.005720
v 0.616001 2.070183 -0.113282
v 0.571504 2.067950 -0.005720
v 0.569532 2.107222 -0.005720
v 0.614030 2.109456 -0.113282
v -0.313341 2.007320 -2.079390
v -0.006498 2.081795 -2.219434
v 0.616001 2.070183 0.101842
v 0.723429 2.075575 0.146396
v 0.721457 2.114847 0.146396
v 0.614030 2.109456 0.101842
v 0.830856 2.080968 0.101842
v 0.873382 2.122473 -0.005720
v 0.828885 2.120240 0.101842
v -0.014892 2.094105 -2.218128
v -0.321736 2.019630 -2.078084
v 2.911494 2.243800 -0.733745
v 2.807316 2.174488 -1.056024
v 1.449167 2.182394 2.195931
v 1.452213 2.167809 2.197238
v 1.768839 2.097027 2.078708
v 1.765793 2.111612 2.077401
v -1.497275 2.028617 0.732457
v -1.492601 2.014725 0.729480
v -1.338529 1.946943 1.031455
v -1.343203 1.960835 1.034432
vt 0.256924 0.336249
vt 0.252619 0.350533
vt 0.242161 0.344653
vt 0.044620 0.706739
vt 0.050200 0.684173
vt 0.050200 0.706739
vt 0.769148 0.353886
vt 0.963546 0.682884
vt 0.757457 0.369832
vt 0.055780 0.684173
vt 0.050200 0.706739
vt 0.050200 0.684173
vt 0.964835 0.002958
vt 0.769159 0.331321
vt 0.757485 0.315354
vt 0.061360 0.684173
vt 0.055780 0.706739
vt 0.055780 0.684173
vt 0.061360 0.684173
vt 0.066940 0.706739
vt 0.061360 0.706739
vt 0.269437 0.351895
vt 0.464895 0.681113
vt 0.257780 0.367886
vt 0.463502 0.001227
vt 0.269401 0.329330
vt 0.257693 0.313408
vt 0.068789 0.731654
vt 0.070759 0.685123
vt 0.070759 0.732604
vt 0.070759 0.729508
vt 0.072850 0.684271
vt 0.072850 0.729606
vt 0.016733 0.999404
vt 0.011155 0.684374
vt 0.016733 0.684173
vt 0.501203 0.049389
vt 0.740963 0.315338
vt 0.729273 0.331284
vt 0.740936 0.369817
vt 0.500007 0.636866
vt 0.729262 0.353850
vt 0.027888 0.684173
vt 0.026059 0.996954
vt 0.022310 0.684374
vt 0.241259 0.367935
vt 0.001199 0.634833
vt 0.229551 0.352014
vt 0.000000 0.047399
vt 0.241171 0.313457
vt 0.229515 0.329448
vt 0.066940 0.684173
vt 0.068789 0.735980
vt 0.066940 0.735432
vt 0.756596 0.346772
vt 0.752265 0.352679
vt 0.756600 0.338412
vt 0.752276 0.332497
vt 0.746155 0.332491
vt 0.741824 0.338399
vt 0.741820 0.346758
vt 0.746145 0.352674
vt 0.256937 0.344609
vt 0.246498 0.350551
vt 0.242148 0.336293
vt 0.246466 0.330369
vt 0.252587 0.330351
vt 0.005577 0.999425
vt 0.000000 0.684409
vt 0.005577 0.684173
vt 0.033465 0.684173
vt 0.031376 0.997308
vt 0.027888 0.684435
vt 0.039043 0.684173
vt 0.037126 0.995963
vt 0.033465 0.684385
vt 0.011155 0.999875
vt 0.005577 0.684384
vt 0.011155 0.684173
vt 0.044620 0.684173
vt 0.042600 0.996127
vt 0.039043 0.684411
vt 0.022310 0.998376
vt 0.016733 0.684434
vt 0.022310 0.684173
vt 0.074742 0.733600
vt 0.072850 0.684391
vt 0.074742 0.684173
vt 0.044620 0.684173
vt 1.000000 0.639822
vt 0.055780 0.706739
vt 1.000000 0.048091
vt 0.061360 0.706739
vt 0.066940 0.684173
vt 0.500007 0.635921
vt 0.500007 0.044200
vt 0.068789 0.684173
vt 0.070759 0.684173
vt 0.014914 0.998659
vt 0.532623 0.000000
vt 0.532529 0.684180
vt 0.027888 0.998183
vt 0.032669 0.684173
vt 0.032474 0.000000
vt 0.068789 0.684720
vt 0.003587 1.000000
vt 0.033465 0.997272
vt 0.039043 0.997205
vt 0.009263 0.999866
vt 0.044620 0.996869
vt 0.020235 0.998985
vt 0.072850 0.733818
vn -0.0501 0.9987 0.0000
vn 0.3822 0.0192 -0.9239
vn 0.0693 -0.9976 -0.0079
vn -0.9227 -0.0463 -0.3827
vn 0.0530 -0.9986 0.0069
vn -0.3822 -0.0192 0.9239
vn 0.9227 0.0463 0.3827
vn -0.0576 0.9982 -0.0182
vn -0.0582 0.9983 0.0034
vn 0.3773 0.1605 0.9121
vn -0.8597 -0.3657 0.3566
vn 0.9417 0.0473 -0.3333
vn 0.0608 -0.9981 -0.0044
vn 0.0599 -0.9979 0.0236
vn -0.9026 -0.0453 0.4281
vn -0.0715 0.9974 0.0089
vn -0.0556 0.9984 -0.0132
vn 0.8597 0.3657 -0.3566
vn 0.0501 -0.9987 -0.0000
vn 0.0693 0.9567 -0.2828
vn -0.1635 0.9461 -0.2797
vn -0.3250 0.9387 -0.1150
vn -0.3250 0.9387 0.1150
vn -0.1635 0.9461 0.2797
vn 0.0693 0.9567 0.2828
vn 0.2370 0.9643 0.1181
vn 0.2370 0.9643 -0.1181
vn -0.3351 -0.0168 -0.9420
vn -0.9408 -0.0472 0.3356
vn 0.3355 0.0168 0.9419
vn -0.4296 -0.0216 -0.9028
vn 0.4283 0.0215 0.9034
vn 0.9027 0.0453 -0.4279
vn -0.3773 -0.1605 -0.9121
vn 0.1208 -0.9778 0.1712
vn 0.2029 -0.9764 -0.0748
vn -0.2075 0.9761 0.0643
vn -0.1101 0.9784 -0.1748
vn 0.7780 0.5606 -0.2837
vn -0.0449 -0.9794 -0.1969
vn -0.1832 -0.9785 0.0949
vn -0.7450 -0.5483 0.3799
vn 0.0349 0.9788 0.2019
vn 0.1872 0.9787 -0.0845
vn -0.3380 0.0871 -0.9371
vn -0.9273 -0.1635 0.3369
vn 0.2899 0.3544 0.8890
vn -0.3813 -0.3902 -0.8380
vn 0.4326 -0.0474 0.9003
vn 0.8930 0.1484 -0.4249
s off
f 16/1/1 10/2/1 12/3/1
f 17/4/2 19/5/2 20/6/2
f 17/7/3 22/8/3 23/9/3
f 24/10/4 26/11/4 27/12/4
f 28/13/5 18/14/5 24/15/5
f 30/16/6 32/17/6 33/18/6
f 23/19/7 36/20/7 34/21/7
f 19/22/8 38/23/8 27/24/8
f 39/25/9 20/26/9 35/27/9
f 42/28/10 44/29/10 41/30/10
f 46/31/11 48/32/11 45/33/11
f 29/34/12 19/35/12 18/36/12
f 47/37/13 25/38/13 30/39/13
f 34/40/14 42/41/14 31/42/14
f 27/43/15 28/44/15 24/45/15
f 26/46/16 48/47/16 33/48/16
f 41/49/17 36/50/17 32/51/17
f 39/52/18 21/53/18 40/54/18
f 1/55/19 23/9/19 2/56/19
f 18/14/19 1/55/19 3/57/19
f 24/15/19 3/57/19 4/58/19
f 25/38/19 4/58/19 5/59/19
f 6/60/19 25/38/19 5/59/19
f 7/61/19 30/39/19 6/60/19
f 8/62/19 31/42/19 7/61/19
f 23/9/19 8/62/19 2/56/19
f 20/26/20 9/63/20 16/1/20
f 19/22/21 10/2/21 9/63/21
f 27/24/22 11/64/22 10/2/22
f 11/64/23 33/48/23 12/3/23
f 12/3/24 32/51/24 13/65/24
f 13/65/25 36/50/25 14/66/25
f 14/66/26 35/27/26 15/67/26
f 35/27/27 16/1/27 15/67/27
f 46/68/28 26/69/28 25/70/28
f 31/71/29 41/72/29 32/73/29
f 23/74/30 39/75/30 35/76/30
f 40/77/31 17/78/31 20/79/31
f 33/80/32 47/81/32 30/82/32
f 44/83/33 34/84/33 36/85/33
f 28/86/34 37/87/34 29/88/34
f 16/1/1 9/63/1 10/2/1
f 10/2/1 11/64/1 12/3/1
f 12/3/1 13/65/1 14/66/1
f 14/66/1 15/67/1 12/3/1
f 15/67/1 16/1/1 12/3/1
f 17/4/2 18/89/2 19/5/2
f 17/7/35 21/90/35 22/8/35
f 24/10/4 25/91/4 26/11/4
f 28/13/36 29/92/36 18/14/36
f 30/16/6 31/93/6 32/17/6
f 23/19/7 35/94/7 36/20/7
f 19/22/37 37/95/37 38/23/37
f 39/25/38 40/96/38 20/26/38
f 42/28/10 43/97/10 44/29/10
f 46/31/11 47/98/11 48/32/11
f 29/34/39 37/99/39 19/35/39
f 47/37/40 46/100/40 25/38/40
f 34/40/41 43/101/41 42/41/41
f 27/43/42 38/102/42 28/44/42
f 26/46/43 45/103/43 48/47/43
f 41/49/44 44/104/44 36/50/44
f 39/52/18 22/105/18 21/53/18
f 1/55/19 17/7/19 23/9/19
f 18/14/19 17/7/19 1/55/19
f 24/15/19 18/14/19 3/57/19
f 25/38/19 24/15/19 4/58/19
f 6/60/19 30/39/19 25/38/19
f 7/61/19 31/42/19 30/39/19
f 8/62/19 34/40/19 31/42/19
f 23/9/19 34/40/19 8/62/19
f 20/26/20 19/22/20 9/63/20
f 19/22/21 27/24/21 10/2/21
f 27/24/22 26/46/22 11/64/22
f 11/64/23 26/46/23 33/48/23
f 12/3/24 33/48/24 32/51/24
f 13/65/25 32/51/25 36/50/25
f 14/66/26 36/50/26 35/27/26
f 35/27/27 20/26/27 16/1/27
f 46/68/45 45/106/45 26/69/45
f 31/71/46 42/107/46 41/72/46
f 23/74/47 22/108/47 39/75/47
f 40/77/48 21/109/48 17/78/48
f 33/80/49 48/110/49 47/81/49
f 44/83/50 43/111/50 34/84/50
f 28/86/34 38/112/34 37/87/34
