# Blender v2.83.9 OBJ File: 'PolyCoord2.blend'
# www.blender.org
o Front_Cube1.007
v 2.041000 -0.149999 -0.697326
v 2.523925 0.150001 -0.697326
v 2.082014 0.548223 -0.697325
v 2.523925 0.448667 -0.697326
v 1.625125 1.303778 -0.697325
v 1.658015 1.249387 -0.633763
v 2.049123 0.602614 -0.633763
v 1.625125 1.303778 0.689203
v 1.589307 1.240263 0.686755
v 1.969553 0.611513 0.686043
v 2.082016 0.548223 0.689203
v 1.392336 1.302587 -0.362490
v 1.392336 1.302586 0.354367
v 0.745097 1.305480 0.320351
v 0.745920 1.303778 0.647323
v 0.745920 0.544992 0.647322
v 0.745097 1.305480 -0.328474
v 0.745920 1.303778 -0.655445
v 0.809387 0.608691 -0.658941
v 1.969553 0.611513 -0.694165
v 1.970906 0.612130 0.650233
v 0.810740 0.609308 0.615009
v 0.809387 0.608690 0.650818
v 0.809469 1.240278 0.648630
v 0.810823 1.240895 0.612821
v 1.393149 1.240843 0.652300
v 1.391795 1.240225 0.688109
v 2.049123 0.602614 0.365436
v 2.018454 0.584069 0.365436
v 2.018454 0.584068 0.625640
v 2.049123 0.602614 0.625640
v 2.018454 0.584069 -0.633763
v 2.018454 0.584069 -0.373559
v 2.049123 0.602614 -0.373559
v 1.658015 1.249387 -0.373559
v 1.627347 1.230842 -0.373559
v 1.627347 1.230842 -0.633763
v 1.658015 1.249387 0.625640
v 1.627347 1.230841 0.625640
v 1.627347 1.230841 0.365437
v 1.658015 1.249387 0.365437
v 1.589307 1.240263 -0.694878
v 1.590661 1.240880 -0.659068
v 1.393149 1.240843 -0.660423
v 1.391795 1.240225 -0.696232
v 0.809469 1.240278 -0.656753
v 0.810823 1.240895 -0.620944
v 0.810740 0.609308 -0.623132
v 1.819972 -0.151269 0.689202
v 1.819969 -0.151269 -0.373559
v 1.819969 -0.151269 0.365436
v 2.041003 -0.150000 0.689202
v 2.041000 -0.149999 0.365436
v 2.082014 0.548223 -0.373559
v 2.082014 0.548223 0.365436
v 2.523925 0.448667 -0.373559
v 2.523925 0.150001 -0.373559
v 2.523925 0.448667 0.365436
v 2.523925 0.150000 0.365436
v 2.523928 0.448667 0.689202
v 2.523928 0.150000 0.689202
v 2.041000 -0.149999 -0.373559
v 0.745920 -0.153231 0.365436
v 0.745923 -0.153231 0.689202
v 1.590661 1.240880 0.650946
v 1.970906 0.612131 -0.658356
v 1.391760 1.303778 -0.697325
v 1.625125 1.303778 0.365437
v 1.625125 1.303778 -0.373559
v 1.391760 1.303778 0.689203
v 0.745920 -0.153230 -0.697326
v 0.745920 0.156463 -0.697326
v 0.745920 0.544992 -0.655445
v 0.745920 -0.153230 -0.373559
v 0.745923 0.156462 0.689202
v 0.745923 0.544992 0.647322
v 0.745920 1.303778 0.647323
v 1.819969 -0.151269 -0.697326
v 1.699657 -0.151711 -0.697326
v 1.699657 -0.151711 -0.373559
v 1.699657 -0.151711 0.365436
v 1.699657 -0.151711 0.689202
v 1.819969 -0.151269 0.689202
v 1.699660 -0.151711 0.689202
vt 0.066987 0.250000
vt 0.066987 0.750000
vt 0.933013 0.250000
vt 0.975528 0.654508
vt 0.793893 0.095491
vt 0.206107 0.095492
vt 1.000000 0.000000
vt 0.000000 1.000000
vt 0.000000 0.000000
vt 0.000000 0.000000
vt 1.000000 1.000000
vt 0.000000 1.000000
vt 0.000000 0.000000
vt 1.000000 1.000000
vt 0.000000 0.000000
vt 1.000000 1.000000
vt 0.000000 1.000000
vt 0.000000 0.000000
vt 1.000000 1.000000
vt 0.000000 1.000000
vt 1.000000 0.000000
vt 0.000000 1.000000
vt 0.000000 0.000000
vt 1.000000 0.000000
vt 0.000000 1.000000
vt 0.000000 0.000000
vt 1.000000 0.000000
vt 0.000000 1.000000
vt 0.000000 0.000000
vt 1.000000 0.000000
vt 0.000000 1.000000
vt 0.000000 0.000000
vt 0.000000 0.000000
vt 1.000000 1.000000
vt 0.000000 1.000000
vt 0.000000 0.000000
vt 1.000000 1.000000
vt 0.000000 1.000000
vt 1.000000 0.000000
vt 0.000000 1.000000
vt 0.000000 0.000000
vt 1.000000 0.000000
vt 0.000000 1.000000
vt 0.000000 0.000000
vt 0.000000 0.000000
vt 1.000000 1.000000
vt 1.000000 0.000000
vt 0.000000 1.000000
vt 0.000000 0.000000
vt 1.000000 0.000000
vt 0.000000 1.000000
vt 0.000000 0.000000
vt 1.000000 0.000000
vt 0.000000 1.000000
vt 0.000000 0.000000
vt 1.000000 0.000000
vt 0.000000 1.000000
vt 0.000000 0.000000
vt 1.000000 0.000000
vt 0.000000 1.000000
vt 0.000000 0.000000
vt 1.000000 0.000000
vt 0.000000 1.000000
vt 0.000000 0.000000
vt 1.000000 0.000000
vt 0.000000 1.000000
vt 0.000000 0.000000
vt 0.000000 0.000000
vt 1.000000 1.000000
vt 0.000000 1.000000
vt 0.000000 0.000000
vt 1.000000 1.000000
vt 0.000000 1.000000
vt 1.000000 0.000000
vt 0.000000 1.000000
vt 0.000000 0.000000
vt 1.000000 0.000000
vt 0.000000 1.000000
vt 0.000000 0.000000
vt 0.000000 0.000000
vt 1.000000 1.000000
vt 0.000000 1.000000
vt 1.000000 0.000000
vt 0.000000 1.000000
vt 0.000000 0.000000
vt 1.000000 0.000000
vt 0.000000 1.000000
vt 0.000000 0.000000
vt 0.000000 0.000000
vt 1.000000 1.000000
vt 0.000000 1.000000
vt 1.000000 0.000000
vt 0.000000 1.000000
vt 0.000000 0.000000
vt 1.000000 0.000000
vt 0.000000 1.000000
vt 0.000000 0.000000
vt 0.500000 0.000000
vt 0.066987 0.250000
vt 0.500000 1.000000
vt 0.206107 0.095492
vt 0.500000 1.000000
vt 0.793893 0.095491
vt 1.000000 0.000000
vt 0.000000 1.000000
vt 0.000000 0.000000
vt 1.000000 0.000000
vt 0.000000 1.000000
vt 1.000000 0.000000
vt 0.000000 1.000000
vt 1.000000 0.000000
vt 0.000000 1.000000
vt 0.000000 0.000000
vt 0.000000 0.000000
vt 1.000000 1.000000
vt 0.000000 1.000000
vt 0.000000 0.000000
vt 1.000000 1.000000
vt 0.000000 1.000000
vt 0.000000 0.000000
vt 1.000000 1.000000
vt 0.000000 1.000000
vt 1.000000 0.000000
vt 0.000000 1.000000
vt 0.000000 0.000000
vt 1.000000 0.000000
vt 0.000000 1.000000
vt 0.000000 0.000000
vt 0.975528 0.654508
vt 0.793893 0.095491
vt 0.206107 0.095492
vt 0.793893 0.095491
vt 0.206107 0.095492
vt 0.024472 0.654509
vt 1.000000 1.000000
vt 0.000000 0.000000
vt 0.000000 0.000000
vt 1.000000 0.000000
vt 0.000000 0.000000
vt 1.000000 0.000000
vt 1.000000 0.000000
vt 1.000000 0.000000
vt 0.000000 1.000000
vt 1.000000 0.000000
vt 0.000000 1.000000
vt 0.000000 0.000000
vt 1.000000 0.000000
vt 0.000000 1.000000
vt 0.000000 0.000000
vt 1.000000 0.000000
vt 0.000000 1.000000
vt 0.000000 0.000000
vt 0.500000 0.000000
vt 0.000000 0.500000
vt 0.146447 0.853553
vt 1.000000 0.000000
vt 1.000000 0.000000
vt 1.000000 0.000000
vt 0.000000 0.000000
vt 1.000000 1.000000
vt 0.000000 1.000000
vt 1.000000 0.000000
vt 0.000000 1.000000
vt 0.500000 1.000000
vt 0.933013 0.750000
vt 0.500000 0.000000
vt 0.024472 0.654509
vt 0.500000 1.000000
vt 1.000000 1.000000
vt 1.000000 0.000000
vt 1.000000 0.000000
vt 1.000000 0.000000
vt 1.000000 0.000000
vt 1.000000 1.000000
vt 1.000000 1.000000
vt 1.000000 1.000000
vt 1.000000 1.000000
vt 1.000000 0.000000
vt 1.000000 0.000000
vt 1.000000 1.000000
vt 1.000000 1.000000
vt 1.000000 0.000000
vt 1.000000 1.000000
vt 1.000000 1.000000
vt 1.000000 1.000000
vt 1.000000 1.000000
vt 1.000000 1.000000
vt 1.000000 1.000000
vt 1.000000 1.000000
vt 1.000000 0.000000
vt 1.000000 0.000000
vt 1.000000 1.000000
vt 1.000000 1.000000
vt 1.000000 0.000000
vt 1.000000 1.000000
vt 1.000000 1.000000
vt 1.000000 0.000000
vt 1.000000 1.000000
vt 1.000000 1.000000
vt 0.066987 0.750000
vt 0.933013 0.750000
vt 0.933013 0.250000
vt 0.024472 0.654509
vt 0.975528 0.654508
vt 1.000000 1.000000
vt 1.000000 1.000000
vt 1.000000 1.000000
vt 1.000000 1.000000
vt 1.000000 0.000000
vt 1.000000 0.000000
vt 1.000000 0.000000
vt 1.000000 1.000000
vt 1.000000 1.000000
vt 0.024472 0.654509
vt 0.500000 1.000000
vt 0.500000 1.000000
vt 0.975528 0.654508
vt 1.000000 1.000000
vt 1.000000 1.000000
vt 1.000000 1.000000
vt 1.000000 1.000000
vt 1.000000 1.000000
vt 1.000000 1.000000
vt 1.000000 1.000000
vt 1.000000 1.000000
vt 1.000000 1.000000
vt 0.500000 1.000000
vt 0.853553 0.853553
vt 0.853553 0.146447
vt 1.000000 0.500000
vt 0.146447 0.146447
vt 1.000000 1.000000
vt 1.000000 1.000000
vt 1.000000 1.000000
vn 0.0000 0.0000 -1.0000
vn -0.0314 0.1071 -0.9938
vn 0.8557 0.5175 0.0000
vn -0.0425 -0.0257 0.9988
vn -0.0313 -0.0057 -0.9995
vn -0.0030 0.9998 0.0171
vn 0.0011 -0.9999 -0.0172
vn -0.5175 0.8557 0.0000
vn 0.5175 -0.8557 0.0000
vn 0.0001 -0.9999 0.0172
vn 0.9993 0.0000 -0.0378
vn 0.0057 -1.0000 -0.0000
vn 0.8557 0.5174 0.0000
vn 1.0000 0.0000 0.0000
vn 0.0016 -1.0000 -0.0000
vn -0.0550 0.0000 -0.9985
vn 0.9993 -0.0000 0.0378
vn 0.0001 -0.9999 -0.0172
vn -0.0000 -0.0000 1.0000
vn 0.5174 -0.8557 0.0000
vn -0.8550 -0.5170 0.0412
vn 0.0011 -0.9999 0.0172
vn -0.0313 -0.0057 0.9995
vn 0.0000 -0.0385 -0.9993
vn 0.0000 -0.0385 0.9993
vn -0.0646 -0.0442 -0.9969
vn -0.0646 -0.0442 0.9969
vn -0.0676 0.0035 -0.9977
vn -0.0676 0.0035 0.9977
vn 0.5277 -0.8494 -0.0000
vn 0.2198 0.9756 -0.0000
vn -0.0425 -0.0257 -0.9988
vn -0.0550 -0.0000 0.9985
vn -0.8550 -0.5170 -0.0412
vn -0.0030 0.9998 -0.0171
vn 0.0000 1.0000 0.0000
vn -0.0051 1.0000 0.0000
vn 0.0042 1.0000 -0.0052
vn 0.0002 1.0000 -0.0036
vn -0.0320 -0.0205 0.9993
vn -0.0303 -0.0247 -0.9992
vn -0.0171 0.0035 -0.9998
vn -0.0314 0.1071 0.9938
vn -0.0303 -0.0247 0.9992
vn 0.0069 -0.0172 -0.9998
vn 0.0069 -0.0172 0.9998
vn -0.0676 -0.0172 -0.9976
vn -0.0676 -0.0172 0.9976
vn 0.0069 0.0030 -1.0000
vn -0.0303 -0.0311 -0.9991
vn -0.0303 -0.0311 0.9991
vn 0.0069 0.0030 1.0000
vn -0.0320 -0.0205 -0.9993
vn -0.0171 0.0035 0.9998
vn -0.0050 1.0000 0.0036
vn -0.0050 1.0000 -0.0036
vn 0.0002 1.0000 0.0036
vn 0.0042 1.0000 0.0052
s off
f 72/1/1 2/2/1 79/3/1
f 72/4/2 73/5/2 3/6/2
f 6/7/3 3/8/3 5/9/3
f 8/10/4 10/11/4 11/12/4
f 73/13/5 20/14/5 3/8/5
f 10/15/6 22/16/6 23/17/6
f 24/18/7 26/19/7 27/20/7
f 29/21/8 31/22/8 28/23/8
f 32/24/8 34/25/8 7/26/8
f 36/27/9 6/28/9 35/29/9
f 39/30/9 41/31/9 38/32/9
f 42/33/10 44/34/10 45/35/10
f 46/36/11 48/37/11 19/38/11
f 83/39/12 53/40/12 52/41/12
f 7/42/3 54/43/3 3/44/3
f 55/45/3 31/46/3 11/12/3
f 34/47/13 55/48/13 54/49/13
f 57/50/14 4/51/14 56/52/14
f 59/53/14 56/54/14 58/55/14
f 58/56/14 61/57/14 59/58/14
f 51/59/12 62/60/12 53/61/12
f 50/62/12 1/63/12 62/64/12
f 71/65/15 80/66/15 74/67/15
f 18/68/16 19/69/16 73/70/16
f 64/71/15 81/72/15 82/73/15
f 22/74/17 24/75/17 23/76/17
f 26/77/18 9/78/18 27/79/18
f 6/80/19 32/81/19 7/82/19
f 40/83/20 35/84/20 41/85/20
f 30/86/1 38/87/1 31/88/1
f 20/89/21 43/90/21 42/91/21
f 44/92/22 46/93/22 45/94/22
f 81/95/15 74/96/15 80/97/15
f 84/98/19 49/99/19 61/100/19
f 61/101/19 11/102/19 75/103/19
f 10/104/23 16/105/23 11/106/23
f 42/107/24 67/108/24 5/9/24
f 38/109/3 68/110/3 8/10/3
f 41/111/3 69/112/3 68/113/3
f 69/114/3 6/115/3 5/116/3
f 70/117/25 9/118/25 8/119/25
f 67/120/26 46/121/26 18/122/26
f 24/123/27 70/124/27 77/125/27
f 33/126/8 28/127/8 34/128/8
f 48/129/28 47/130/28 44/131/28
f 26/132/29 25/133/29 22/134/29
f 52/41/30 59/135/30 61/57/30
f 57/50/30 1/63/30 2/136/30
f 58/56/31 11/12/31 60/137/31
f 3/138/31 56/54/31 4/139/31
f 20/140/32 5/116/32 3/44/32
f 31/141/3 8/119/3 11/106/3
f 58/56/31 54/43/31 55/45/31
f 53/142/30 57/143/30 59/58/30
f 23/144/33 77/145/33 16/146/33
f 65/147/34 10/148/34 9/149/34
f 48/150/35 20/151/35 19/152/35
f 40/153/3 30/154/3 29/155/3
f 67/156/36 69/112/36 5/9/36
f 68/157/36 70/124/36 8/10/36
f 12/158/37 68/110/37 69/114/37
f 12/159/38 18/160/38 17/161/38
f 13/162/39 15/163/39 70/117/39
f 2/2/1 1/164/1 78/165/1
f 78/165/1 79/3/1 2/2/1
f 79/3/1 71/166/1 72/1/1
f 4/167/1 2/168/1 3/6/1
f 2/168/1 72/4/1 3/6/1
f 6/7/3 7/169/3 3/8/3
f 8/10/40 9/170/40 10/11/40
f 73/13/41 19/171/41 20/14/41
f 10/15/6 21/172/6 22/16/6
f 24/18/7 25/173/7 26/19/7
f 29/21/8 30/174/8 31/22/8
f 32/24/8 33/175/8 34/25/8
f 36/27/20 37/176/20 6/28/20
f 39/30/9 40/177/9 41/31/9
f 42/33/10 43/178/10 44/34/10
f 46/36/11 47/179/11 48/37/11
f 83/39/12 51/180/12 53/40/12
f 7/42/3 34/181/3 54/43/3
f 55/45/3 28/182/3 31/46/3
f 34/47/3 28/183/3 55/48/3
f 57/50/14 2/184/14 4/51/14
f 59/53/14 57/185/14 56/54/14
f 58/56/14 60/186/14 61/57/14
f 51/59/12 50/187/12 62/60/12
f 50/62/12 78/188/12 1/63/12
f 71/65/15 79/189/15 80/66/15
f 18/68/42 46/190/42 19/69/42
f 64/71/15 63/191/15 81/72/15
f 22/74/17 25/192/17 24/75/17
f 26/77/18 65/193/18 9/78/18
f 6/80/19 37/194/19 32/81/19
f 40/83/20 36/195/20 35/84/20
f 30/86/1 39/196/1 38/87/1
f 20/89/21 66/197/21 43/90/21
f 44/92/22 47/198/22 46/93/22
f 81/95/15 63/199/15 74/96/15
f 52/200/19 61/100/19 49/99/19
f 61/100/19 75/201/19 84/98/19
f 75/201/19 64/202/19 84/98/19
f 60/203/19 11/102/19 61/101/19
f 11/102/43 76/204/43 75/103/43
f 10/104/44 23/205/44 16/105/44
f 42/107/45 45/206/45 67/108/45
f 38/109/3 41/207/3 68/110/3
f 41/111/3 35/208/3 69/112/3
f 69/114/3 35/209/3 6/115/3
f 70/117/46 27/210/46 9/118/46
f 67/120/47 45/211/47 46/121/47
f 24/123/48 27/212/48 70/124/48
f 33/126/8 29/213/8 28/127/8
f 43/214/49 66/215/49 44/131/49
f 66/215/50 48/129/50 44/131/50
f 22/134/51 21/216/51 26/132/51
f 21/216/52 65/217/52 26/132/52
f 52/41/30 53/142/30 59/135/30
f 57/50/30 62/218/30 1/63/30
f 58/56/31 55/219/31 11/12/31
f 3/138/31 54/220/31 56/54/31
f 20/140/53 42/221/53 5/116/53
f 31/141/3 38/222/3 8/119/3
f 58/56/31 56/223/31 54/43/31
f 53/142/30 62/218/30 57/143/30
f 23/144/54 24/224/54 77/145/54
f 65/147/34 21/225/34 10/148/34
f 48/150/35 66/226/35 20/151/35
f 29/155/3 33/227/3 40/153/3
f 33/227/3 32/228/3 36/229/3
f 40/153/3 33/227/3 36/229/3
f 32/228/3 37/230/3 36/229/3
f 40/153/3 39/231/3 30/154/3
f 67/156/55 12/232/55 69/112/55
f 68/157/56 13/233/56 70/124/56
f 12/158/37 13/233/37 68/110/37
f 12/159/57 67/156/57 18/160/57
f 13/162/58 14/234/58 15/163/58
