# Blender v2.83.9 OBJ File: 'PolyCoord2.blend'
# www.blender.org
o Front_Cube1.007
v 2.041000 -0.149999 -0.697326
v 2.523925 0.150001 -0.697326
v 2.082014 0.548223 -0.697325
v 2.523925 0.448667 -0.697326
v 1.625125 1.303778 -0.697325
v 1.658015 1.249387 -0.633763
v 2.049123 0.602614 -0.633763
v 1.625125 1.303778 0.689203
v 1.589307 1.240263 0.686755
v 1.969553 0.611513 0.686043
v 2.082016 0.548223 0.689203
v 1.392336 1.302587 -0.362490
v 1.392336 1.302586 0.354367
v 0.745097 1.305480 0.320351
v 0.745920 1.303778 0.647323
v 0.745920 0.544992 0.647322
v 0.745097 1.305480 -0.328474
v 0.745920 1.303778 -0.655445
v 0.809387 0.608691 -0.658941
v 1.969553 0.611513 -0.694165
v 1.970906 0.612130 0.650233
v 0.810740 0.609308 0.615009
v 0.809387 0.608690 0.650818
v 0.809469 1.240278 0.648630
v 0.810823 1.240895 0.612821
v 1.393149 1.240843 0.652300
v 1.391795 1.240225 0.688109
v 2.049123 0.602614 0.365436
v 2.018454 0.584069 0.365436
v 2.018454 0.584068 0.625640
v 2.049123 0.602614 0.625640
v 2.018454 0.584069 -0.633763
v 2.018454 0.584069 -0.373559
v 2.049123 0.602614 -0.373559
v 1.658015 1.249387 -0.373559
v 1.627347 1.230842 -0.373559
v 1.627347 1.230842 -0.633763
v 1.658015 1.249387 0.625640
v 1.627347 1.230841 0.625640
v 1.627347 1.230841 0.365437
v 1.658015 1.249387 0.365437
v 1.589307 1.240263 -0.694878
v 1.590661 1.240880 -0.659068
v 1.393149 1.240843 -0.660423
v 1.391795 1.240225 -0.696232
v 0.809469 1.240278 -0.656753
v 0.810823 1.240895 -0.620944
v 0.810740 0.609308 -0.623132
v 1.819972 -0.151269 0.689202
v 1.819969 -0.151269 -0.373559
v 1.819969 -0.151269 0.365436
v 2.041003 -0.150000 0.689202
v 2.041000 -0.149999 0.365436
v 2.082014 0.548223 -0.373559
v 2.082014 0.548223 0.365436
v 2.523925 0.448667 -0.373559
v 2.523925 0.150001 -0.373559
v 2.523925 0.448667 0.365436
v 2.523925 0.150000 0.365436
v 2.523928 0.448667 0.689202
v 2.523928 0.150000 0.689202
v 2.041000 -0.149999 -0.373559
v 0.745920 -0.153231 0.365436
v 0.745923 -0.153231 0.689202
v 1.590661 1.240880 0.650946
v 1.970906 0.612131 -0.658356
v 1.391760 1.303778 -0.697325
v 1.625125 1.303778 0.365437
v 1.625125 1.303778 -0.373559
v 1.391760 1.303778 0.689203
v 0.745920 -0.153230 -0.697326
v 0.745920 0.156463 -0.697326
v 0.745920 0.544992 -0.655445
v 0.745920 -0.153230 -0.373559
v 0.745923 0.156462 0.689202
v 0.745923 0.544992 0.647322
v 0.745920 1.303778 0.647323
v 1.819969 -0.151269 -0.697326
v 1.699657 -0.151711 -0.697326
v 1.699657 -0.151711 -0.373559
v 1.699657 -0.151711 0.365436
v 1.699657 -0.151711 0.689202
v 1.819969 -0.151269 0.689202
v 1.699660 -0.151711 0.689202
vt 0.282857 0.446407
vt 0.285149 0.000105
vt 0.359230 0.207114
vt 0.187124 0.446527
vt 0.186770 0.110891
vt 0.733667 0.015960
vt 0.531589 0.000000
vt 0.749342 0.000000
vt 0.732818 0.569561
vt 0.903770 0.655568
vt 0.919446 0.683778
vt 0.171124 0.139117
vt 0.540427 0.946079
vt 0.531589 0.696336
vt 0.540427 0.696283
vt 0.543139 0.696428
vt 0.549265 0.821302
vt 0.540427 0.821446
vt 0.896912 0.934666
vt 0.888073 1.000000
vt 0.888073 0.934666
vt 0.896912 0.683778
vt 0.888073 0.749112
vt 0.888073 0.683778
vt 0.896912 0.749112
vt 0.905751 0.683778
vt 0.905751 0.749112
vt 0.896912 1.000000
vt 0.905751 0.934666
vt 0.905751 1.000000
vt 0.554687 0.696283
vt 0.560814 0.738627
vt 0.551976 0.738482
vt 0.607691 0.831983
vt 0.598859 0.696283
vt 0.607691 0.696290
vt 0.186845 0.446527
vt 0.140206 0.527821
vt 0.140205 0.446527
vt 0.547265 0.015960
vt 0.531589 0.081294
vt 0.531589 0.266848
vt 0.547265 0.332182
vt 0.531589 0.348142
vt 0.547265 0.081294
vt 0.998773 0.266848
vt 0.935744 0.348142
vt 0.935744 0.266848
vt 0.998773 0.081294
vt 0.935744 0.081294
vt 0.998773 0.000000
vt 0.186845 0.527821
vt 0.140206 0.713374
vt 0.186845 0.713374
vt 0.140206 0.794668
vt 0.531589 0.348142
vt 0.732322 0.429436
vt 0.531589 0.429436
vt 0.000000 0.446260
vt 0.171434 0.430552
vt 0.531590 0.696283
vt 0.732322 0.614989
vt 0.732322 0.696283
vt 0.607691 0.831983
vt 0.616522 0.696283
vt 0.616522 0.831976
vt 0.543139 0.863645
vt 0.572361 0.696283
vt 0.581197 0.886062
vt 0.572361 0.886061
vt 0.896912 0.934666
vt 0.572361 0.696283
vt 0.563525 0.886062
vt 0.563525 0.696285
vt 0.581197 0.696335
vt 0.590028 0.880780
vt 0.581197 0.880832
vt 0.554687 0.863500
vt 0.359230 0.207275
vt 0.359260 0.177075
vt 0.433093 0.000185
vt 0.531589 0.110864
vt 0.435856 0.446485
vt 0.919446 0.348142
vt 0.015917 0.234339
vt 0.000171 0.283889
vt 0.000263 0.225311
vt 0.733667 0.332182
vt 0.749342 0.266848
vt 0.749342 0.348142
vt 0.733667 0.266848
vt 0.749342 0.081294
vt 0.732665 0.510984
vt 0.748463 0.560516
vt 0.015682 0.430323
vt 0.748021 0.364533
vt 0.732322 0.348613
vt 0.896912 0.749112
vt 0.888073 0.975213
vt 0.732322 0.974812
vt 0.732641 0.828399
vt 0.187164 0.593341
vt 0.186845 0.446927
vt 0.342596 0.446527
vt 0.000001 0.527821
vt 0.000000 0.446527
vt 0.000001 0.713374
vt 0.000001 0.794668
vt 1.000000 0.429436
vt 0.919446 0.348142
vt 1.000000 0.348142
vt 0.919446 0.696283
vt 1.000000 0.614989
vt 1.000000 0.696283
vt 0.919446 0.614989
vt 0.919446 0.429436
vt 0.903772 0.364134
vt 0.590028 0.880780
vt 0.598859 0.696335
vt 0.598859 0.880832
vt 0.905751 0.933574
vt 0.914589 0.683831
vt 0.914589 0.933626
vt 0.749342 0.065334
vt 0.935744 0.000000
vt 0.935744 0.065334
vt 0.395295 0.446677
vt 0.346047 0.527971
vt 0.346047 0.446677
vt 0.346047 0.713525
vt 0.395295 0.794819
vt 0.346047 0.794819
vt 0.395325 0.530750
vt 0.531589 0.457193
vt 0.531545 0.539291
vt 0.395325 0.710745
vt 0.531589 0.784303
vt 0.358942 0.121431
vt 0.359169 0.176913
vt 0.359230 0.446515
vt 0.211495 0.000000
vt 0.531589 0.946131
vt 0.551976 0.696283
vt 0.896912 1.000000
vt 0.896912 0.683778
vt 0.563525 0.696428
vt 0.598859 0.831976
vt 0.547265 0.266848
vt 0.998773 0.348142
vt 0.935744 0.000000
vt 0.186845 0.794668
vt 0.732322 0.348142
vt 0.531589 0.614989
vt 0.607691 0.696290
vt 0.551976 0.863501
vt 0.581197 0.696285
vt 0.572361 0.886061
vt 0.590028 0.696283
vt 0.563525 0.863645
vt 0.359428 0.121593
vt 0.359483 0.446677
vt 0.506747 0.000000
vt 0.531589 0.446500
vt 0.015846 0.283909
vt 0.733667 0.081294
vt 0.748340 0.510946
vt 0.732765 0.778829
vt 0.888073 0.683778
vt 0.342596 0.737961
vt 0.187288 0.642910
vt 0.590028 0.696283
vt 0.905751 0.683778
vt 0.935744 0.250888
vt 0.935744 0.316222
vt 0.749342 0.250888
vt 0.749342 0.316222
vt 0.749342 0.000000
vt 0.531545 0.702204
vn 0.0000 0.0000 -1.0000
vn -0.0314 0.1071 -0.9938
vn 0.8557 0.5175 0.0000
vn -0.0425 -0.0257 0.9988
vn -0.0313 -0.0057 -0.9995
vn -0.0030 0.9998 0.0171
vn 0.0011 -0.9999 -0.0172
vn -0.5175 0.8557 0.0000
vn 0.5175 -0.8557 0.0000
vn 0.0001 -0.9999 0.0172
vn 0.9993 0.0000 -0.0378
vn 0.0057 -1.0000 -0.0000
vn 0.8557 0.5174 0.0000
vn 1.0000 0.0000 0.0000
vn 0.0016 -1.0000 -0.0000
vn -0.0550 0.0000 -0.9985
vn 0.9993 -0.0000 0.0378
vn 0.0001 -0.9999 -0.0172
vn -0.0000 -0.0000 1.0000
vn 0.5174 -0.8557 0.0000
vn -0.8550 -0.5170 0.0412
vn 0.0011 -0.9999 0.0172
vn -0.0313 -0.0057 0.9995
vn 0.0000 -0.0385 -0.9993
vn 0.0000 -0.0385 0.9993
vn -0.0646 -0.0442 -0.9969
vn -0.0646 -0.0442 0.9969
vn -0.0676 0.0035 -0.9977
vn -0.0676 0.0035 0.9977
vn 0.5277 -0.8494 -0.0000
vn 0.2198 0.9756 -0.0000
vn -0.0425 -0.0257 -0.9988
vn -0.0550 -0.0000 0.9985
vn -0.8550 -0.5170 -0.0412
vn -0.0030 0.9998 -0.0171
vn 0.0000 1.0000 0.0000
vn -0.0051 1.0000 0.0000
vn 0.0042 1.0000 -0.0052
vn 0.0002 1.0000 -0.0036
vn -0.0320 -0.0205 0.9993
vn -0.0303 -0.0247 -0.9992
vn -0.0171 0.0035 -0.9998
vn -0.0314 0.1071 0.9938
vn -0.0303 -0.0247 0.9992
vn 0.0069 -0.0172 -0.9998
vn 0.0069 -0.0172 0.9998
vn -0.0676 -0.0172 -0.9976
vn -0.0676 -0.0172 0.9976
vn 0.0069 0.0030 -1.0000
vn -0.0303 -0.0311 -0.9991
vn -0.0303 -0.0311 0.9991
vn 0.0069 0.0030 1.0000
vn -0.0320 -0.0205 -0.9993
vn -0.0171 0.0035 0.9998
vn -0.0050 1.0000 0.0036
vn -0.0050 1.0000 -0.0036
vn 0.0002 1.0000 0.0036
vn 0.0042 1.0000 0.0052
s off
f 72/1/1 2/2/1 79/3/1
f 72/1/2 73/4/2 3/5/2
f 6/6/3 3/7/3 5/8/3
f 8/9/4 10/10/4 11/11/4
f 73/4/5 20/12/5 3/5/5
f 10/13/6 22/14/6 23/15/6
f 24/16/7 26/17/7 27/18/7
f 29/19/8 31/20/8 28/21/8
f 32/22/8 34/23/8 7/24/8
f 36/25/9 6/26/9 35/27/9
f 39/28/9 41/29/9 38/30/9
f 42/31/10 44/32/10 45/33/10
f 46/34/11 48/35/11 19/36/11
f 83/37/12 53/38/12 52/39/12
f 7/40/3 54/41/3 3/7/3
f 55/42/3 31/43/3 11/44/3
f 34/45/13 55/42/13 54/41/13
f 57/46/14 4/47/14 56/48/14
f 59/49/14 56/48/14 58/50/14
f 58/50/14 61/51/14 59/49/14
f 51/52/12 62/53/12 53/38/12
f 50/54/12 1/55/12 62/53/12
f 71/56/15 80/57/15 74/58/15
f 18/59/16 19/60/16 73/4/16
f 64/61/15 81/62/15 82/63/15
f 22/64/17 24/65/17 23/66/17
f 26/17/18 9/67/18 27/18/18
f 6/68/19 32/69/19 7/70/19
f 40/71/20 35/27/20 41/29/20
f 30/72/1 38/73/1 31/74/1
f 20/75/21 43/76/21 42/77/21
f 44/32/22 46/78/22 45/33/22
f 81/62/15 74/58/15 80/57/15
f 84/79/19 49/80/19 61/81/19
f 61/81/19 11/82/19 75/83/19
f 10/10/23 16/84/23 11/11/23
f 42/85/24 67/86/24 5/87/24
f 38/88/3 68/89/3 8/90/3
f 41/91/3 69/92/3 68/89/3
f 69/92/3 6/6/3 5/8/3
f 70/93/25 9/94/25 8/9/25
f 67/86/26 46/95/26 18/59/26
f 24/96/27 70/93/27 77/97/27
f 33/98/8 28/21/8 34/23/8
f 48/99/28 47/100/28 44/101/28
f 26/102/29 25/103/29 22/104/29
f 52/39/30 59/105/30 61/106/30
f 57/107/30 1/55/30 2/108/30
f 58/109/31 11/110/31 60/111/31
f 3/112/31 56/113/31 4/114/31
f 20/12/32 5/87/32 3/5/32
f 31/43/3 8/90/3 11/44/3
f 58/109/31 54/115/31 55/116/31
f 53/38/30 57/107/30 59/105/30
f 23/117/33 77/97/33 16/84/33
f 65/118/34 10/119/34 9/120/34
f 48/121/35 20/122/35 19/123/35
f 40/124/3 30/125/3 29/126/3
f 67/127/36 69/128/36 5/129/36
f 68/130/36 70/131/36 8/132/36
f 12/133/37 68/130/37 69/128/37
f 12/133/38 18/134/38 17/135/38
f 13/136/39 15/137/39 70/131/39
f 2/2/1 1/138/1 78/139/1
f 78/139/1 79/3/1 2/2/1
f 79/3/1 71/140/1 72/1/1
f 4/141/1 2/2/1 3/5/1
f 2/2/1 72/1/1 3/5/1
f 6/6/3 7/40/3 3/7/3
f 8/9/40 9/94/40 10/10/40
f 73/4/41 19/60/41 20/12/41
f 10/13/6 21/142/6 22/14/6
f 24/16/7 25/143/7 26/17/7
f 29/19/8 30/144/8 31/20/8
f 32/22/8 33/98/8 34/23/8
f 36/25/20 37/145/20 6/26/20
f 39/28/9 40/71/9 41/29/9
f 42/31/10 43/146/10 44/32/10
f 46/34/11 47/147/11 48/35/11
f 83/37/12 51/52/12 53/38/12
f 7/40/3 34/45/3 54/41/3
f 55/42/3 28/148/3 31/43/3
f 34/45/3 28/148/3 55/42/3
f 57/46/14 2/149/14 4/47/14
f 59/49/14 57/46/14 56/48/14
f 58/50/14 60/150/14 61/51/14
f 51/52/12 50/54/12 62/53/12
f 50/54/12 78/151/12 1/55/12
f 71/56/15 79/152/15 80/57/15
f 18/59/42 46/95/42 19/60/42
f 64/61/15 63/153/15 81/62/15
f 22/64/17 25/154/17 24/65/17
f 26/17/18 65/155/18 9/67/18
f 6/68/19 37/156/19 32/69/19
f 40/71/20 36/25/20 35/27/20
f 30/72/1 39/157/1 38/73/1
f 20/75/21 66/158/21 43/76/21
f 44/32/22 47/159/22 46/78/22
f 81/62/15 63/153/15 74/58/15
f 52/160/19 61/81/19 49/80/19
f 61/81/19 75/83/19 84/79/19
f 75/83/19 64/161/19 84/79/19
f 60/162/19 11/82/19 61/81/19
f 11/82/43 76/163/43 75/83/43
f 10/10/44 23/117/44 16/84/44
f 42/85/45 45/164/45 67/86/45
f 38/88/3 41/91/3 68/89/3
f 41/91/3 35/165/3 69/92/3
f 69/92/3 35/165/3 6/6/3
f 70/93/46 27/166/46 9/94/46
f 67/86/47 45/164/47 46/95/47
f 24/96/48 27/166/48 70/93/48
f 33/98/8 29/19/8 28/21/8
f 43/167/49 66/168/49 44/101/49
f 66/168/50 48/99/50 44/101/50
f 22/104/51 21/169/51 26/102/51
f 21/169/52 65/170/52 26/102/52
f 52/39/30 53/38/30 59/105/30
f 57/107/30 62/53/30 1/55/30
f 58/109/31 55/116/31 11/110/31
f 3/112/31 54/115/31 56/113/31
f 20/12/53 42/85/53 5/87/53
f 31/43/3 38/88/3 8/90/3
f 58/109/31 56/113/31 54/115/31
f 53/38/30 62/53/30 57/107/30
f 23/117/54 24/96/54 77/97/54
f 65/118/34 21/171/34 10/119/34
f 48/121/35 66/172/35 20/122/35
f 29/126/3 33/173/3 40/124/3
f 33/173/3 32/174/3 36/175/3
f 40/124/3 33/173/3 36/175/3
f 32/174/3 37/176/3 36/175/3
f 40/124/3 39/177/3 30/125/3
f 67/127/55 12/133/55 69/128/55
f 68/130/56 13/136/56 70/131/56
f 12/133/37 13/136/37 68/130/37
f 12/133/57 67/127/57 18/134/57
f 13/136/58 14/178/58 15/137/58
