# Blender v2.83.9 OBJ File: 'PolyCoord2.blend'
# www.blender.org
o TailBlade_Cube1.010
v -3.652574 1.278516 0.132931
v -3.639826 1.244840 0.132931
v -3.719076 1.280566 0.132931
v -3.685400 1.293314 0.132931
v -3.721126 1.214064 0.132931
v -3.733874 1.247740 0.132931
v -3.654624 1.212013 0.132931
v -3.688300 1.199266 0.132931
v -3.719076 1.280566 0.154973
v -3.733874 1.247740 0.154973
v -3.721126 1.214064 0.154973
v -3.688300 1.199266 0.154973
v -3.654624 1.212013 0.154973
v -3.639826 1.244840 0.154973
v -3.652574 1.278516 0.154973
v -3.685400 1.293314 0.154973
v -3.800306 1.708130 0.132931
v -3.800306 1.708130 0.143952
v -3.800306 1.708130 0.154973
v -3.907665 1.667490 0.132931
v -3.853986 1.687810 0.132931
v -3.573394 0.784450 0.132931
v -3.573394 0.784450 0.143952
v -3.573394 0.784450 0.154973
v -3.466035 0.825090 0.132931
v -3.519714 0.804770 0.132931
v -3.853986 1.687810 0.154973
v -3.907665 1.667490 0.154973
v -3.907665 1.667490 0.143952
v -3.519714 0.804770 0.154973
v -3.466035 0.825090 0.154973
v -3.466035 0.825090 0.143952
vt 0.146447 0.146447
vt 0.000000 0.500000
vt 0.146447 0.853553
vt 1.000000 0.000000
vt 0.000000 1.000000
vt 0.000000 0.000000
vt 0.793893 0.095491
vt 0.206107 0.095492
vt 0.024472 0.654509
vt 0.793893 0.095491
vt 0.206107 0.095492
vt 0.024472 0.654509
vt 1.000000 0.000000
vt 0.000000 1.000000
vt 0.000000 0.000000
vt 1.000000 0.000000
vt 0.000000 1.000000
vt 0.000000 0.000000
vt 1.000000 0.000000
vt 0.000000 1.000000
vt 0.000000 0.000000
vt 0.793893 0.095491
vt 0.206107 0.095492
vt 0.024472 0.654509
vt 0.793893 0.095491
vt 0.206107 0.095492
vt 0.024472 0.654509
vt 1.000000 0.000000
vt 0.000000 1.000000
vt 0.000000 0.000000
vt 1.000000 0.000000
vt 0.000000 1.000000
vt 0.000000 0.000000
vt 0.793893 0.095491
vt 0.206107 0.095492
vt 0.024472 0.654509
vt 0.793893 0.095491
vt 0.206107 0.095492
vt 0.024472 0.654509
vt 0.793893 0.095491
vt 0.206107 0.095492
vt 0.024472 0.654509
vt 0.793893 0.095491
vt 0.206107 0.095492
vt 0.024472 0.654509
vt 0.000000 0.000000
vt 1.000000 0.000000
vt 1.000000 1.000000
vt 0.000000 0.000000
vt 1.000000 0.000000
vt 1.000000 1.000000
vt 0.000000 0.000000
vt 1.000000 0.000000
vt 1.000000 1.000000
vt 0.000000 0.000000
vt 1.000000 0.000000
vt 1.000000 1.000000
vt 0.000000 0.000000
vt 1.000000 0.000000
vt 1.000000 1.000000
vt 0.000000 0.000000
vt 1.000000 0.000000
vt 1.000000 1.000000
vt 0.000000 0.000000
vt 1.000000 0.000000
vt 1.000000 1.000000
vt 0.000000 0.000000
vt 1.000000 0.000000
vt 1.000000 1.000000
vt 0.000000 0.000000
vt 0.000000 1.000000
vt 0.000000 0.000000
vt 0.000000 1.000000
vt 0.500000 1.000000
vt 0.853553 0.853553
vt 1.000000 0.500000
vt 0.853553 0.146447
vt 0.500000 0.000000
vt 1.000000 1.000000
vt 0.500000 1.000000
vt 0.975528 0.654508
vt 0.500000 1.000000
vt 0.975528 0.654508
vt 1.000000 1.000000
vt 1.000000 1.000000
vt 1.000000 1.000000
vt 0.500000 1.000000
vt 0.975528 0.654508
vt 0.500000 1.000000
vt 0.975528 0.654508
vt 1.000000 1.000000
vt 1.000000 1.000000
vt 0.500000 1.000000
vt 0.975528 0.654508
vt 0.975528 0.654508
vt 0.500000 1.000000
vt 0.975528 0.654508
vt 0.500000 1.000000
vt 0.975528 0.654508
vn 0.0000 0.0000 1.0000
vn 0.4110 0.9116 0.0000
vn 0.9637 0.2670 0.0000
vn 0.0000 0.0000 -1.0000
vn -0.9116 0.4110 0.0000
vn -0.9352 -0.3540 0.0000
vn -0.4110 -0.9116 0.0000
vn -0.9637 -0.2670 0.0000
vn 0.9116 -0.4110 0.0000
vn 0.9352 0.3540 0.0000
vn -0.8989 -0.4381 0.0000
vn 0.8989 0.4381 0.0000
vn 0.3540 -0.9352 0.0000
vn -0.3540 0.9352 0.0000
s off
f 14/1/1 15/2/1 16/3/1
f 16/4/2 1/5/2 4/6/2
f 18/7/3 19/8/3 16/9/3
f 21/10/4 17/11/4 4/12/4
f 10/13/5 3/14/5 6/15/5
f 11/16/6 6/17/6 5/18/6
f 12/19/7 5/20/7 8/21/7
f 23/22/8 24/23/8 12/24/8
f 26/25/4 22/26/4 8/27/4
f 14/28/9 7/29/9 2/30/9
f 15/31/10 2/32/10 1/33/10
f 27/34/1 28/35/1 9/36/1
f 29/37/11 20/38/11 3/39/11
f 30/40/1 31/41/1 13/42/1
f 32/43/12 25/44/12 7/45/12
f 22/46/13 26/47/13 23/48/13
f 25/49/13 32/50/13 26/51/13
f 31/52/13 30/53/13 32/54/13
f 24/55/13 23/56/13 30/57/13
f 17/58/14 21/59/14 18/60/14
f 20/61/14 29/62/14 21/63/14
f 28/64/14 27/65/14 29/66/14
f 19/67/14 18/68/14 27/69/14
f 21/70/14 27/69/14 18/71/14
f 26/72/13 30/57/13 23/73/13
f 16/3/1 9/74/1 10/75/1
f 10/75/1 11/76/1 16/3/1
f 11/76/1 12/77/1 16/3/1
f 12/77/1 13/78/1 16/3/1
f 13/78/1 14/1/1 16/3/1
f 16/4/2 15/79/2 1/5/2
f 16/9/3 4/80/3 18/7/3
f 4/80/3 17/81/3 18/7/3
f 4/12/4 3/82/4 21/10/4
f 3/82/4 20/83/4 21/10/4
f 10/13/5 9/84/5 3/14/5
f 11/16/6 10/85/6 6/17/6
f 12/19/7 11/86/7 5/20/7
f 12/24/8 8/87/8 23/22/8
f 8/87/8 22/88/8 23/22/8
f 8/27/4 7/89/4 26/25/4
f 7/89/4 25/90/4 26/25/4
f 14/28/9 13/91/9 7/29/9
f 15/31/10 14/92/10 2/32/10
f 9/36/1 16/93/1 27/34/1
f 16/93/1 19/94/1 27/34/1
f 3/39/11 9/74/11 29/37/11
f 9/74/11 28/95/11 29/37/11
f 13/42/1 12/96/1 30/40/1
f 12/96/1 24/97/1 30/40/1
f 7/45/12 13/98/12 32/43/12
f 13/98/12 31/99/12 32/43/12
f 21/70/14 29/62/14 27/69/14
f 26/72/13 32/50/13 30/57/13
